<svg width="20" height="20" viewBox="0 0 20 20" fill="none" xmlns="http://www.w3.org/2000/svg">
    <path
        d="M9.28571 16V7.27273H10.6905V16H9.28571ZM10 5.81818C9.72619 5.81818 9.49008 5.72917 9.29167 5.55114C9.09722 5.37311 9 5.15909 9 4.90909C9 4.65909 9.09722 4.44508 9.29167 4.26705C9.49008 4.08902 9.72619 4 10 4C10.2738 4 10.5079 4.08902 10.7024 4.26705C10.9008 4.44508 11 4.65909 11 4.90909C11 5.15909 10.9008 5.37311 10.7024 5.55114C10.5079 5.72917 10.2738 5.81818 10 5.81818Z"
        fill="#007DC3" />
    <circle cx="10" cy="10" r="9.5" stroke="#007DC3" />
</svg>