<svg width="47" height="47" viewBox="0 0 47 47" fill="none" xmlns="http://www.w3.org/2000/svg">
<path d="M47 23.5C47 36.4787 36.4787 47 23.5 47C10.5213 47 0 36.4787 0 23.5C0 10.5213 10.5213 0 23.5 0C36.4787 0 47 10.5213 47 23.5ZM3.28901 23.5C3.28901 34.6622 12.3378 43.711 23.5 43.711C34.6622 43.711 43.711 34.6622 43.711 23.5C43.711 12.3378 34.6622 3.28901 23.5 3.28901C12.3378 3.28901 3.28901 12.3378 3.28901 23.5Z" fill="#CA061E"/>
<path d="M33.0285 14.3125L14.3125 33.0285M14.3125 14.3125L33.0285 33.0285" stroke="#CA061E" stroke-width="4" stroke-linecap="round"/>
</svg>
