<svg width="50" height="47" viewBox="0 0 50 47" fill="none" xmlns="http://www.w3.org/2000/svg">
<path d="M44.7858 18.5426C45.6704 18.3365 46.5605 18.8862 46.7042 19.783C47.5014 24.7592 46.6793 29.8766 44.3347 34.3704C41.7358 39.3516 37.4382 43.2369 32.2209 45.3219C27.0036 47.4069 21.212 47.5537 15.8958 45.7357C10.5796 43.9177 6.09069 40.2551 3.24274 35.4119C0.394794 30.5687 -0.623699 24.8654 0.371877 19.3359C1.36745 13.8063 4.3112 8.81642 8.66954 5.2707C13.0279 1.72497 18.5123 -0.141924 24.1288 0.00841424C29.1956 0.14404 34.0674 1.9133 38.0284 5.02904C38.7423 5.59055 38.7899 6.63564 38.1798 7.3085C37.5698 7.98136 36.5335 8.02625 35.8133 7.4729C32.4399 4.88107 28.3213 3.41083 24.0408 3.29625C19.2104 3.16695 14.4935 4.77256 10.7452 7.82203C6.99683 10.8715 4.46508 15.163 3.60884 19.9187C2.7526 24.6743 3.62855 29.5794 6.0779 33.7447C8.52726 37.9101 12.3879 41.06 16.9601 42.6236C21.5322 44.1872 26.5133 44.061 31.0004 42.2678C35.4874 40.4745 39.1835 37.1331 41.4187 32.849C43.3995 29.0526 44.1168 24.7387 43.4917 20.5307C43.3583 19.6324 43.9013 18.7486 44.7858 18.5426Z" fill="#34A853"/>
<path d="M11.5781 23.1589L22.8173 32.6951L47.339 7.49219" stroke="#34A853" stroke-width="4" stroke-linecap="round" stroke-linejoin="round"/>
</svg>
