<svg width="16" height="18" viewBox="0 0 16 18" fill="none" xmlns="http://www.w3.org/2000/svg">
    <path
        d="M10.75 17.9375H5.25C4.33832 17.9375 3.46398 17.5753 2.81932 16.9307C2.17466 16.286 1.8125 15.4117 1.8125 14.5V6.25C1.8125 6.06766 1.88493 5.8928 2.01386 5.76386C2.1428 5.63493 2.31766 5.5625 2.5 5.5625C2.68234 5.5625 2.8572 5.63493 2.98614 5.76386C3.11507 5.8928 3.1875 6.06766 3.1875 6.25V14.5C3.1875 15.047 3.4048 15.5716 3.79159 15.9584C4.17839 16.3452 4.70299 16.5625 5.25 16.5625H10.75C11.297 16.5625 11.8216 16.3452 12.2084 15.9584C12.5952 15.5716 12.8125 15.047 12.8125 14.5V6.25C12.8125 6.06766 12.8849 5.8928 13.0139 5.76386C13.1428 5.63493 13.3177 5.5625 13.5 5.5625C13.6823 5.5625 13.8572 5.63493 13.9861 5.76386C14.1151 5.8928 14.1875 6.06766 14.1875 6.25V14.5C14.1875 15.4117 13.8253 16.286 13.1807 16.9307C12.536 17.5753 11.6617 17.9375 10.75 17.9375Z"
        fill="#E93A53" />
    <path
        d="M14.875 4.1875H1.125C0.942664 4.1875 0.767795 4.11507 0.638864 3.98614C0.509933 3.8572 0.4375 3.68234 0.4375 3.5C0.4375 3.31766 0.509933 3.1428 0.638864 3.01386C0.767795 2.88493 0.942664 2.8125 1.125 2.8125H14.875C15.0573 2.8125 15.2322 2.88493 15.3611 3.01386C15.4901 3.1428 15.5625 3.31766 15.5625 3.5C15.5625 3.68234 15.4901 3.8572 15.3611 3.98614C15.2322 4.11507 15.0573 4.1875 14.875 4.1875Z"
        fill="#E93A53" />
    <path
        d="M10.75 4.1875H5.25C5.06766 4.1875 4.8928 4.11507 4.76386 3.98614C4.63493 3.8572 4.5625 3.68234 4.5625 3.5V2.125C4.5625 1.57799 4.7798 1.05339 5.16659 0.666592C5.55339 0.279799 6.07799 0.0625 6.625 0.0625H9.375C9.92201 0.0625 10.4466 0.279799 10.8334 0.666592C11.2202 1.05339 11.4375 1.57799 11.4375 2.125V3.5C11.4375 3.68234 11.3651 3.8572 11.2361 3.98614C11.1072 4.11507 10.9323 4.1875 10.75 4.1875ZM5.9375 2.8125H10.0625V2.125C10.0625 1.94266 9.99007 1.7678 9.86114 1.63886C9.73221 1.50993 9.55734 1.4375 9.375 1.4375H6.625C6.44266 1.4375 6.2678 1.50993 6.13886 1.63886C6.00993 1.7678 5.9375 1.94266 5.9375 2.125V2.8125Z"
        fill="#E93A53" />
    <path
        d="M6.625 13.8125C6.44266 13.8125 6.2678 13.7401 6.13886 13.6111C6.00993 13.4822 5.9375 13.3073 5.9375 13.125V8.3125C5.9375 8.13016 6.00993 7.9553 6.13886 7.82636C6.2678 7.69743 6.44266 7.625 6.625 7.625C6.80734 7.625 6.9822 7.69743 7.11114 7.82636C7.24007 7.9553 7.3125 8.13016 7.3125 8.3125V13.125C7.3125 13.3073 7.24007 13.4822 7.11114 13.6111C6.9822 13.7401 6.80734 13.8125 6.625 13.8125Z"
        fill="#E93A53" />
    <path
        d="M9.375 13.8125C9.19266 13.8125 9.01779 13.7401 8.88886 13.6111C8.75993 13.4822 8.6875 13.3073 8.6875 13.125V8.3125C8.6875 8.13016 8.75993 7.9553 8.88886 7.82636C9.01779 7.69743 9.19266 7.625 9.375 7.625C9.55734 7.625 9.73221 7.69743 9.86114 7.82636C9.99007 7.9553 10.0625 8.13016 10.0625 8.3125V13.125C10.0625 13.3073 9.99007 13.4822 9.86114 13.6111C9.73221 13.7401 9.55734 13.8125 9.375 13.8125Z"
        fill="#E93A53" />
</svg>