<svg width="38" height="7" viewBox="0 0 38 7" fill="none" xmlns="http://www.w3.org/2000/svg">
<path d="M0.425781 5.93709V3.81641H2.54111V5.93709H0.425781Z" fill="#1A1919"/>
<path fill-rule="evenodd" clip-rule="evenodd" d="M0.425781 0.283203V3.03151C2.44666 2.91699 3.44831 3.57764 3.3253 5.93837H6.06666V0.283203H0.425781ZM1.5768 1.89519V1.44595H4.90686V4.77562H4.44996C4.22152 3.04912 3.21108 2.12421 1.5768 1.89519Z" fill="#5EB04C"/>
<path d="M9.78758 2.4043V5.72528H8.8878V3.14915H7.66667V5.72528H6.77148V2.4043H9.78758Z" fill="#5EB04C"/>
<path d="M12.0354 3.11119C12.2618 3.11119 12.4669 3.16654 12.6505 3.27724C12.8372 3.38478 12.9841 3.53976 13.0912 3.74218C13.2014 3.94144 13.2565 4.17391 13.2565 4.43959C13.2565 4.70527 13.2014 4.93932 13.0912 5.14174C12.9841 5.341 12.8372 5.49598 12.6505 5.60668C12.4669 5.71421 12.2618 5.76798 12.0354 5.76798C11.7446 5.76798 11.5136 5.67784 11.3422 5.49756V6.64567H10.4699V3.15389H11.3009V3.41008C11.4631 3.21082 11.7079 3.11119 12.0354 3.11119ZM11.8517 5.0516C12.0048 5.0516 12.1302 4.99783 12.2282 4.89029C12.3261 4.77959 12.3751 4.62936 12.3751 4.43959C12.3751 4.24982 12.3261 4.10116 12.2282 3.99363C12.1302 3.88293 12.0048 3.82758 11.8517 3.82758C11.6987 3.82758 11.5732 3.88293 11.4753 3.99363C11.3774 4.10116 11.3284 4.24982 11.3284 4.43959C11.3284 4.62936 11.3774 4.77959 11.4753 4.89029C11.5732 4.99783 11.6987 5.0516 11.8517 5.0516Z" fill="#5EB04C"/>
<path d="M13.7213 3.15389H14.5889V4.50126L15.631 3.15389H16.4344V5.72528H15.5621V4.37317L14.5292 5.72528H13.7213V3.15389Z" fill="#5EB04C"/>
<path d="M19.0729 4.37791C19.3575 4.47596 19.4998 4.67838 19.4998 4.98518C19.4998 5.21606 19.4126 5.39793 19.2381 5.53077C19.0637 5.66044 18.8066 5.72528 18.4669 5.72528H17.0667V3.15389H18.4026C18.727 3.15389 18.978 3.2124 19.1555 3.32943C19.3361 3.44645 19.4264 3.61092 19.4264 3.82283C19.4264 3.94618 19.3958 4.0553 19.3345 4.15019C19.2733 4.24507 19.1861 4.32098 19.0729 4.37791ZM17.8472 4.18814H18.3246C18.5266 4.18814 18.6276 4.11065 18.6276 3.95567C18.6276 3.80702 18.5266 3.73269 18.3246 3.73269H17.8472V4.18814ZM18.3889 5.14174C18.6 5.14174 18.7056 5.06267 18.7056 4.90452C18.7056 4.74638 18.6031 4.66731 18.398 4.66731H17.8472V5.14174H18.3889Z" fill="#5EB04C"/>
<path d="M21.0009 3.11119C21.414 3.11119 21.7293 3.20924 21.9465 3.40534C22.1638 3.59827 22.2725 3.89558 22.2725 4.29726V5.72528H21.4599V5.39318C21.3345 5.64305 21.0896 5.76798 20.7254 5.76798C20.5326 5.76798 20.3658 5.73319 20.225 5.66361C20.0843 5.59402 19.9771 5.50072 19.9037 5.3837C19.8333 5.26351 19.7981 5.1275 19.7981 4.97569C19.7981 4.73215 19.8884 4.54396 20.069 4.41112C20.2495 4.27512 20.528 4.20712 20.9045 4.20712H21.4003C21.385 3.93511 21.209 3.79911 20.8723 3.79911C20.753 3.79911 20.6321 3.81967 20.5097 3.86079C20.3872 3.89874 20.2832 3.95251 20.1975 4.02209L19.9037 3.41008C20.0414 3.3152 20.2082 3.24245 20.4041 3.19184C20.603 3.13808 20.8019 3.11119 21.0009 3.11119ZM20.9687 5.19867C21.0697 5.19867 21.1585 5.17337 21.235 5.12276C21.3115 5.07215 21.3666 4.99783 21.4003 4.89978V4.6768H21.0238C20.7698 4.6768 20.6428 4.76378 20.6428 4.93773C20.6428 5.01681 20.6719 5.08006 20.73 5.1275C20.7882 5.17495 20.8677 5.19867 20.9687 5.19867Z" fill="#5EB04C"/>
<path d="M25.065 3.87027H24.2663V5.72528H23.3986V3.87027H22.5952V3.15389H25.065V3.87027Z" fill="#5EB04C"/>
<path d="M25.4994 2.4043H28.185V3.13017H26.3946V3.66627H27.2255C27.6142 3.66627 27.9126 3.75167 28.1207 3.92246C28.3288 4.09326 28.4329 4.33838 28.4329 4.65782C28.4329 4.99308 28.3166 5.2556 28.084 5.44537C27.8514 5.63198 27.5254 5.72528 27.1061 5.72528H25.4994V2.4043ZM27.0465 5.0516C27.1995 5.0516 27.3158 5.01997 27.3954 4.95671C27.4749 4.89345 27.5147 4.80331 27.5147 4.68629C27.5147 4.45224 27.3586 4.33521 27.0465 4.33521H26.3946V5.0516H27.0465Z" fill="#5EB04C"/>
<path d="M29.912 3.11119C30.3252 3.11119 30.6404 3.20924 30.8577 3.40534C31.075 3.59827 31.1836 3.89558 31.1836 4.29726V5.72528H30.3711V5.39318C30.2456 5.64305 30.0008 5.76798 29.6366 5.76798C29.4438 5.76798 29.277 5.73319 29.1362 5.66361C28.9954 5.59402 28.8883 5.50072 28.8148 5.3837C28.7445 5.26351 28.7093 5.1275 28.7093 4.97569C28.7093 4.73215 28.7995 4.54396 28.9801 4.41112C29.1607 4.27512 29.4392 4.20712 29.8156 4.20712H30.3114C30.2961 3.93511 30.1201 3.79911 29.7835 3.79911C29.6641 3.79911 29.5432 3.81967 29.4208 3.86079C29.2984 3.89874 29.1943 3.95251 29.1087 4.02209L28.8148 3.41008C28.9526 3.3152 29.1194 3.24245 29.3152 3.19184C29.5142 3.13808 29.7131 3.11119 29.912 3.11119ZM29.8799 5.19867C29.9809 5.19867 30.0696 5.17337 30.1462 5.12276C30.2227 5.07215 30.2778 4.99783 30.3114 4.89978V4.6768H29.935C29.681 4.6768 29.554 4.76378 29.554 4.93773C29.554 5.01681 29.583 5.08006 29.6412 5.1275C29.6993 5.17495 29.7789 5.19867 29.8799 5.19867Z" fill="#5EB04C"/>
<path d="M31.7543 3.15389H32.6219V4.10749H33.5171V3.15389H34.3894V5.72528H33.5171V4.82387H32.6219V5.72528H31.7543V3.15389Z" fill="#5EB04C"/>
<path d="M36.1896 4.80964H35.8958V5.72528H35.0236V3.15389H35.8958V4.10274H36.208L36.8185 3.15389H37.7413L36.9057 4.3874L37.7963 5.72528H36.768L36.1896 4.80964Z" fill="#5EB04C"/>
</svg>
