<svg width="24" height="8" viewBox="0 0 24 8" fill="none" xmlns="http://www.w3.org/2000/svg">
<path d="M8.93421 0.405862L6.09306 7.46739H4.13976L2.48242 1.23663C3.54785 1.8894 4.67248 3.07221 4.79086 3.66959L5.20519 5.27179L7.0993 0.405862H8.93421Z" fill="#0D3D8F"/>
<path d="M9.76288 0.405862L8.63826 7.46739H10.414L11.5386 0.405862H9.76288Z" fill="#0D3D8F"/>
<path d="M16.8658 2.0674L17.1025 0.524543C14.2022 -0.246874 12.4857 0.939941 12.3673 2.54212C12.3673 3.90698 13.9654 4.50038 14.3798 4.73772C15.5044 5.38194 14.7941 6.16192 13.7287 6.16192C12.9 6.1026 12.4265 5.9839 11.8937 5.68717L11.657 7.17069C12.2489 7.46739 12.7816 7.58609 13.7287 7.64541C15.7411 7.64541 16.9841 6.51798 16.8658 4.79708C16.7474 3.90698 15.5636 3.31359 14.7941 2.95753C13.4327 2.1861 15.09 1.17731 16.8658 2.0674Z" fill="#0D3D8F"/>
<path fill-rule="evenodd" clip-rule="evenodd" d="M16.8658 7.46739L19.4702 1.11795C19.5885 0.880607 19.6477 0.465223 20.1804 0.405862H21.8378L23.3767 7.46739H21.6602L21.4235 6.4586H19.0558L18.6415 7.46739H16.8658ZM21.1867 4.97509H19.6477L20.5948 2.42344L21.1867 4.97509Z" fill="#0D3D8F"/>
<path d="M4.43567 1.29486L4.73162 3.48647C4.25809 2.71504 3.54781 2.00695 2.42318 1.29486C1.8103 0.906803 1.35775 0.7608 0.647461 0.523438H3.72538C4.37648 0.523438 4.37648 0.998162 4.43567 1.29486Z" fill="#F4A804"/>
</svg>
