<svg width="22" height="14" viewBox="0 0 22 14" fill="none" xmlns="http://www.w3.org/2000/svg">
<ellipse cx="15.3046" cy="6.87138" rx="6.33386" ry="6.3499" fill="#F39A00"/>
<path d="M13.1931 6.87138C13.1931 7.5698 13.0806 8.24189 12.8729 8.87043H9.38107L9.67431 9.57597H12.5915C12.4867 9.79897 12.3692 10.0149 12.2401 10.2227H10.0262L10.3781 10.8695C10.3781 10.8695 11.8117 10.8306 11.7803 10.8695C10.619 12.3043 8.84594 13.2213 6.85926 13.2213C3.36116 13.2213 0.525391 10.3783 0.525391 6.87138C0.525391 3.36443 3.36116 0.521484 6.85926 0.521484C8.50993 0.521484 10.0131 1.15452 11.1405 2.19165C11.1665 2.21556 10.4954 2.8733 10.4954 2.8733C10.4954 2.8733 11.7626 2.85145 11.7856 2.87988C11.9641 3.10109 12.1067 3.27577 12.2548 3.52005H9.96754L9.61566 4.1992H12.6067C12.7076 4.41716 12.7967 4.64182 12.8729 4.87234H9.38107L9.20513 5.51909H13.0758C13.162 5.93672 13.1931 6.42814 13.1931 6.87138Z" fill="#CA061E"/>
<path d="M4.55597 5.51865L4.11052 8.46622H3.62341L3.88619 6.71452L3.03054 8.15462H2.79981L2.33833 6.69768L2.06914 8.46622H1.58203L2.03069 5.51865H2.4537L3.01452 7.35456L4.11052 5.51865H4.55597Z" fill="white"/>
<path d="M6.63926 6.2008L6.29636 8.46622H5.82207L5.85411 8.24304C5.71097 8.41428 5.53471 8.4999 5.32534 8.4999C5.19075 8.4999 5.06683 8.4592 4.9536 8.37779C4.84037 8.29638 4.74957 8.17988 4.6812 8.02829C4.61497 7.8739 4.58186 7.69283 4.58186 7.4851C4.58186 7.23526 4.62352 7.01068 4.70684 6.81137C4.7923 6.60925 4.90767 6.45205 5.05294 6.33976C5.19822 6.22466 5.35846 6.16712 5.53365 6.16712C5.79856 6.16712 5.9855 6.28081 6.09446 6.50819L6.13933 6.2008H6.63926ZM5.47917 7.95671C5.57744 7.95671 5.66504 7.92583 5.74195 7.86407C5.81886 7.79951 5.87868 7.71108 5.92141 7.59879C5.96414 7.4865 5.9855 7.35737 5.9855 7.2114C5.9855 7.057 5.95025 6.93489 5.87975 6.84506C5.81138 6.75522 5.71524 6.71031 5.59133 6.71031C5.49305 6.71031 5.40546 6.74259 5.32855 6.80716C5.25163 6.86892 5.19181 6.95594 5.14908 7.06823C5.10636 7.18052 5.08499 7.30965 5.08499 7.45562C5.08499 7.61002 5.11917 7.73213 5.18754 7.82196C5.25804 7.91179 5.35525 7.95671 5.47917 7.95671Z" fill="white"/>
<path d="M7.32323 8.4999C7.17368 8.4999 7.03161 8.47885 6.89701 8.43674C6.76455 8.39183 6.66093 8.33428 6.58616 8.2641L6.77844 7.78828C6.85321 7.85284 6.94401 7.90478 7.05083 7.94408C7.15979 7.98338 7.26875 8.00303 7.37771 8.00303C7.49094 8.00303 7.57533 7.98478 7.63088 7.94829C7.68643 7.90899 7.7142 7.85425 7.7142 7.78407C7.7142 7.72792 7.68963 7.68722 7.64049 7.66195C7.59135 7.63669 7.51231 7.61002 7.40335 7.58195C7.27943 7.55107 7.17688 7.51738 7.0957 7.48089C7.01665 7.44439 6.94722 7.38544 6.88739 7.30403C6.82971 7.21982 6.80087 7.10613 6.80087 6.96296C6.80087 6.71312 6.87992 6.51802 7.03801 6.37766C7.19825 6.2373 7.40762 6.16712 7.66613 6.16712C7.78577 6.16712 7.90221 6.18396 8.01544 6.21765C8.12867 6.25133 8.22481 6.29765 8.30386 6.3566L8.1244 6.83663C7.98339 6.72154 7.81355 6.66399 7.61486 6.66399C7.5059 6.66399 7.42258 6.68504 7.36489 6.72715C7.30934 6.76926 7.28157 6.8226 7.28157 6.88716C7.28157 6.94611 7.30614 6.98963 7.35528 7.0177C7.40442 7.04296 7.48667 7.07104 7.60204 7.10191C7.72381 7.13279 7.82316 7.16648 7.90007 7.20297C7.97912 7.23666 8.04749 7.29421 8.10517 7.37562C8.16286 7.45703 8.1917 7.56791 8.1917 7.70827C8.1917 7.96092 8.11051 8.15602 7.94814 8.29357C7.78791 8.43113 7.5796 8.4999 7.32323 8.4999Z" fill="white"/>
<path d="M9.0129 7.66616C9.00862 7.68862 9.00649 7.7195 9.00649 7.7588C9.00649 7.90478 9.06738 7.97776 9.18915 7.97776C9.25538 7.97776 9.32268 7.95109 9.39105 7.89776L9.46475 8.36516C9.35366 8.45499 9.21052 8.4999 9.03533 8.4999C8.87296 8.4999 8.74263 8.44376 8.64436 8.33147C8.54608 8.21918 8.49694 8.06479 8.49694 7.86828C8.49694 7.81214 8.50228 7.74617 8.51297 7.67037L8.65077 6.75663H8.38478L8.46169 6.25133H8.72768L8.811 5.69972H9.31093L9.22761 6.25133H9.65703L9.58012 6.75663H9.1507L9.0129 7.66616Z" fill="white"/>
<path d="M11.4804 7.16508C11.4804 7.26894 11.4708 7.38404 11.4516 7.51036H10.1312C10.1483 7.81916 10.2968 7.97355 10.5767 7.97355C10.6643 7.97355 10.7476 7.95531 10.8266 7.91881C10.9078 7.88232 10.9783 7.83038 11.0381 7.76301L11.2465 8.19673C11.1503 8.29778 11.0403 8.37358 10.9164 8.42411C10.7925 8.47464 10.6621 8.4999 10.5254 8.4999C10.3481 8.4999 10.1921 8.4592 10.0575 8.37779C9.92506 8.29357 9.82251 8.17427 9.74987 8.01987C9.67937 7.86547 9.64412 7.68722 9.64412 7.4851C9.64412 7.23526 9.68684 7.01068 9.7723 6.81137C9.8599 6.60925 9.98061 6.45205 10.1344 6.33976C10.2883 6.22466 10.4634 6.16712 10.66 6.16712C10.8266 6.16712 10.9709 6.20782 11.0926 6.28923C11.2165 6.37064 11.3116 6.48714 11.3778 6.63873C11.4462 6.79032 11.4804 6.96577 11.4804 7.16508ZM10.6376 6.65978C10.5201 6.65978 10.4207 6.70189 10.3395 6.7861C10.2583 6.86751 10.2007 6.9812 10.1665 7.12718H11.0221C11.0221 6.9812 10.9869 6.86751 10.9164 6.7861C10.848 6.70189 10.7551 6.65978 10.6376 6.65978Z" fill="white"/>
<path d="M12.3326 6.47029C12.4074 6.36362 12.4971 6.28642 12.6018 6.2387C12.7086 6.19098 12.8336 6.16712 12.9768 6.16712L12.887 6.77347C12.8272 6.76786 12.7887 6.76505 12.7717 6.76505C12.62 6.76505 12.4982 6.81418 12.4063 6.91243C12.3166 7.01068 12.2557 7.16367 12.2237 7.37141L12.057 8.46622H11.5571L11.9 6.2008H12.3743L12.3326 6.47029Z" fill="white"/>
<path d="M14.0219 8.51675C13.7976 8.51675 13.601 8.46341 13.4322 8.35674C13.2656 8.25006 13.1374 8.09988 13.0477 7.90618C12.9579 7.71248 12.9131 7.48931 12.9131 7.23666C12.9131 6.9026 12.9708 6.60223 13.0861 6.33555C13.2036 6.06606 13.3681 5.85411 13.5797 5.69972C13.7912 5.54532 14.0337 5.46812 14.3071 5.46812C14.5079 5.46812 14.6853 5.51304 14.8391 5.60287C14.9929 5.6927 15.1094 5.82183 15.1884 5.99026L14.8135 6.3945C14.6938 6.16431 14.5133 6.04921 14.2719 6.04921C14.1074 6.04921 13.9621 6.09974 13.836 6.2008C13.71 6.30186 13.6117 6.43941 13.5412 6.61346C13.4728 6.78751 13.4387 6.98121 13.4387 7.19455C13.4387 7.42194 13.4931 7.603 13.6021 7.73775C13.7132 7.86969 13.8681 7.93565 14.0668 7.93565C14.3039 7.93565 14.5026 7.82196 14.6628 7.59458L14.9705 8.00724C14.7483 8.34691 14.4321 8.51675 14.0219 8.51675Z" fill="white"/>
<path d="M17.1299 6.2008L16.787 8.46622H16.3127L16.3448 8.24304C16.2016 8.41428 16.0254 8.4999 15.816 8.4999C15.6814 8.4999 15.5575 8.4592 15.4443 8.37779C15.331 8.29638 15.2402 8.17988 15.1719 8.02829C15.1056 7.8739 15.0725 7.69283 15.0725 7.4851C15.0725 7.23526 15.1142 7.01068 15.1975 6.81137C15.283 6.60925 15.3983 6.45205 15.5436 6.33976C15.6889 6.22466 15.8491 6.16712 16.0243 6.16712C16.2892 6.16712 16.4762 6.28081 16.5851 6.50819L16.63 6.2008H17.1299ZM15.9698 7.95671C16.0681 7.95671 16.1557 7.92583 16.2326 7.86407C16.3095 7.79951 16.3694 7.71108 16.4121 7.59879C16.4548 7.4865 16.4762 7.35737 16.4762 7.2114C16.4762 7.057 16.4409 6.93489 16.3704 6.84506C16.3021 6.75522 16.2059 6.71031 16.082 6.71031C15.9837 6.71031 15.8961 6.74259 15.8192 6.80716C15.7423 6.86892 15.6825 6.95594 15.6398 7.06823C15.597 7.18052 15.5757 7.30965 15.5757 7.45562C15.5757 7.61002 15.6099 7.73213 15.6782 7.82196C15.7487 7.91179 15.8459 7.95671 15.9698 7.95671Z" fill="white"/>
<path d="M17.9613 6.47029C18.0361 6.36362 18.1258 6.28642 18.2305 6.2387C18.3373 6.19098 18.4623 6.16712 18.6055 6.16712L18.5157 6.77347C18.4559 6.76786 18.4175 6.76505 18.4004 6.76505C18.2487 6.76505 18.1269 6.81418 18.035 6.91243C17.9453 7.01068 17.8844 7.16367 17.8524 7.37141L17.6857 8.46622H17.1858L17.5287 6.2008H18.003L17.9613 6.47029Z" fill="white"/>
<path d="M20.7009 5.3418L20.2266 8.46622H19.7523L19.7876 8.23883C19.6423 8.41288 19.4661 8.4999 19.2588 8.4999C19.1242 8.4999 19.0003 8.4592 18.8871 8.37779C18.7738 8.29638 18.683 8.17988 18.6147 8.02829C18.5484 7.8739 18.5153 7.69283 18.5153 7.4851C18.5153 7.23526 18.557 7.01068 18.6403 6.81137C18.7258 6.60925 18.8411 6.45205 18.9864 6.33976C19.1317 6.22466 19.2919 6.16712 19.4671 6.16712C19.5932 6.16712 19.7032 6.19519 19.7972 6.25133C19.8933 6.30748 19.9692 6.39029 20.0247 6.49977L20.201 5.3418H20.7009ZM19.4126 7.95671C19.5109 7.95671 19.5985 7.92583 19.6754 7.86407C19.7523 7.79951 19.8122 7.71108 19.8549 7.59879C19.8976 7.4865 19.919 7.35737 19.919 7.2114C19.919 7.057 19.8837 6.93489 19.8132 6.84506C19.7449 6.75522 19.6487 6.71031 19.5248 6.71031C19.4265 6.71031 19.3389 6.74259 19.262 6.80716C19.1851 6.86892 19.1253 6.95594 19.0826 7.06823C19.0398 7.18052 19.0185 7.30965 19.0185 7.45562C19.0185 7.61002 19.0526 7.73213 19.121 7.82196C19.1915 7.91179 19.2887 7.95671 19.4126 7.95671Z" fill="white"/>
<path d="M4.43683 5.40146L3.99138 8.34903H3.50427L3.76705 6.59733L2.9114 8.03743H2.68067L2.21919 6.58049L1.95 8.34903H1.46289L1.91155 5.40146H2.33456L2.89538 7.23738L3.99138 5.40146H4.43683Z" fill="white"/>
<path d="M6.52012 6.08361L6.17722 8.34903H5.70293L5.73497 8.12586C5.59183 8.2971 5.41557 8.38272 5.2062 8.38272C5.0716 8.38272 4.94769 8.34201 4.83446 8.2606C4.72123 8.17919 4.63043 8.06269 4.56206 7.91111C4.49583 7.75671 4.46272 7.57564 4.46272 7.36791C4.46272 7.11807 4.50438 6.89349 4.5877 6.69418C4.67316 6.49206 4.78853 6.33486 4.9338 6.22257C5.07908 6.10748 5.23932 6.04993 5.4145 6.04993C5.67942 6.04993 5.86636 6.16362 5.97532 6.391L6.02019 6.08361H6.52012ZM5.36003 7.83952C5.4583 7.83952 5.5459 7.80864 5.62281 7.74688C5.69972 7.68232 5.75954 7.59389 5.80227 7.4816C5.845 7.36931 5.86636 7.24018 5.86636 7.09421C5.86636 6.93981 5.83111 6.8177 5.76061 6.72787C5.69224 6.63804 5.5961 6.59312 5.47219 6.59312C5.37391 6.59312 5.28632 6.6254 5.20941 6.68997C5.13249 6.75173 5.07267 6.83875 5.02994 6.95104C4.98721 7.06333 4.96585 7.19246 4.96585 7.33844C4.96585 7.49283 5.00003 7.61495 5.0684 7.70478C5.1389 7.79461 5.23611 7.83952 5.36003 7.83952Z" fill="white"/>
<path d="M7.20409 8.38272C7.05454 8.38272 6.91246 8.36166 6.77787 8.31955C6.64541 8.27464 6.54179 8.21709 6.46702 8.14691L6.6593 7.67109C6.73407 7.73565 6.82487 7.78759 6.93169 7.82689C7.04065 7.86619 7.14961 7.88584 7.25857 7.88584C7.3718 7.88584 7.45619 7.86759 7.51174 7.8311C7.56729 7.7918 7.59506 7.73706 7.59506 7.66688C7.59506 7.61073 7.57049 7.57003 7.52135 7.54476C7.47221 7.5195 7.39317 7.49283 7.28421 7.46476C7.16029 7.43388 7.05774 7.40019 6.97656 7.3637C6.89751 7.32721 6.82808 7.26825 6.76825 7.18685C6.71057 7.10263 6.68173 6.98894 6.68173 6.84577C6.68173 6.59593 6.76078 6.40083 6.91887 6.26047C7.07911 6.12011 7.28848 6.04993 7.54699 6.04993C7.66663 6.04993 7.78307 6.06677 7.8963 6.10046C8.00953 6.13414 8.10567 6.18046 8.18472 6.23941L8.00526 6.71945C7.86425 6.60435 7.69441 6.5468 7.49572 6.5468C7.38676 6.5468 7.30343 6.56786 7.24575 6.60997C7.1902 6.65207 7.16243 6.70541 7.16243 6.76998C7.16243 6.82893 7.187 6.87244 7.23614 6.90051C7.28528 6.92578 7.36753 6.95385 7.4829 6.98473C7.60467 7.01561 7.70402 7.04929 7.78093 7.08579C7.85998 7.11947 7.92835 7.17702 7.98603 7.25843C8.04371 7.33984 8.07256 7.45072 8.07256 7.59108C8.07256 7.84373 7.99137 8.03883 7.829 8.17639C7.66877 8.31394 7.46046 8.38272 7.20409 8.38272Z" fill="white"/>
<path d="M8.89375 7.54898C8.88948 7.57143 8.88735 7.60231 8.88735 7.64161C8.88735 7.78759 8.94824 7.86058 9.07001 7.86058C9.13624 7.86058 9.20354 7.83391 9.27191 7.78057L9.34561 8.24797C9.23452 8.3378 9.09138 8.38272 8.91619 8.38272C8.75382 8.38272 8.62349 8.32657 8.52522 8.21428C8.42694 8.102 8.3778 7.9476 8.3778 7.75109C8.3778 7.69495 8.38314 7.62898 8.39383 7.55319L8.53163 6.63944H8.26564L8.34255 6.13414H8.60854L8.69186 5.58253H9.19179L9.10847 6.13414H9.53789L9.46098 6.63944H9.03156L8.89375 7.54898Z" fill="white"/>
<path d="M11.3613 7.04789C11.3613 7.15176 11.3516 7.26685 11.3324 7.39318H10.0121C10.0292 7.70197 10.1777 7.85636 10.4575 7.85636C10.5451 7.85636 10.6285 7.83812 10.7075 7.80162C10.7887 7.76513 10.8592 7.7132 10.919 7.64582L11.1273 8.07954C11.0312 8.1806 10.9211 8.25639 10.7972 8.30692C10.6733 8.35745 10.543 8.38272 10.4063 8.38272C10.2289 8.38272 10.073 8.34201 9.93838 8.2606C9.80592 8.17639 9.70337 8.05708 9.63073 7.90268C9.56023 7.74829 9.52497 7.57003 9.52497 7.36791C9.52497 7.11807 9.5677 6.89349 9.65316 6.69418C9.74076 6.49206 9.86147 6.33486 10.0153 6.22257C10.1691 6.10748 10.3443 6.04993 10.5409 6.04993C10.7075 6.04993 10.8517 6.09063 10.9735 6.17204C11.0974 6.25345 11.1925 6.36995 11.2587 6.52154C11.3271 6.67313 11.3613 6.84858 11.3613 7.04789ZM10.5184 6.54259C10.4009 6.54259 10.3016 6.5847 10.2204 6.66892C10.1392 6.75033 10.0815 6.86402 10.0473 7.00999H10.903C10.903 6.86402 10.8677 6.75033 10.7972 6.66892C10.7289 6.5847 10.6359 6.54259 10.5184 6.54259Z" fill="white"/>
<path d="M12.2135 6.35311C12.2882 6.24643 12.378 6.16923 12.4827 6.12151C12.5895 6.07379 12.7559 6.04774 12.899 6.04774L12.7231 6.64786C12.6633 6.64225 12.6696 6.64786 12.6525 6.64786C12.5008 6.64786 12.379 6.69699 12.2872 6.79524C12.1974 6.89349 12.1366 7.04649 12.1045 7.25422L11.9379 8.34903H11.4379L11.7808 6.08361H12.2551L12.2135 6.35311Z" fill="white"/>
<path d="M13.9028 8.39956C13.6784 8.39956 13.4819 8.34622 13.3131 8.23955C13.1465 8.13287 13.0183 7.98269 12.9285 7.78899C12.8388 7.59529 12.7939 7.37212 12.7939 7.11947C12.7939 6.78542 12.8516 6.48504 12.967 6.21836C13.0845 5.94887 13.249 5.73692 13.4605 5.58253C13.672 5.42813 13.9145 5.35093 14.188 5.35093C14.3888 5.35093 14.5661 5.39585 14.72 5.48568C14.8738 5.57551 14.9902 5.70464 15.0693 5.87307L14.6943 6.27731C14.5747 6.04712 14.3941 5.93203 14.1527 5.93203C13.9882 5.93203 13.8429 5.98255 13.7169 6.08361C13.5908 6.18467 13.4926 6.32223 13.4221 6.49627C13.3537 6.67032 13.3195 6.86402 13.3195 7.07737C13.3195 7.30475 13.374 7.48581 13.4829 7.62056C13.594 7.7525 13.7489 7.81847 13.9476 7.81847C14.1848 7.81847 14.3835 7.70478 14.5437 7.47739L14.8513 7.89005C14.6292 8.22972 14.313 8.39956 13.9028 8.39956Z" fill="white"/>
<path d="M17.0108 6.08361L16.6679 8.34903H16.1936L16.2256 8.12586C16.0825 8.2971 15.9063 8.38272 15.6969 8.38272C15.5623 8.38272 15.4384 8.34201 15.3251 8.2606C15.2119 8.17919 15.1211 8.06269 15.0527 7.91111C14.9865 7.75671 14.9534 7.57564 14.9534 7.36791C14.9534 7.11807 14.9951 6.89349 15.0784 6.69418C15.1638 6.49206 15.2792 6.33486 15.4245 6.22257C15.5698 6.10748 15.73 6.04993 15.9052 6.04993C16.1701 6.04993 16.357 6.16362 16.466 6.391L16.5109 6.08361H17.0108ZM15.8507 7.83952C15.949 7.83952 16.0366 7.80864 16.1135 7.74688C16.1904 7.68232 16.2502 7.59389 16.2929 7.4816C16.3357 7.36931 16.357 7.24018 16.357 7.09421C16.357 6.93981 16.3218 6.8177 16.2513 6.72787C16.1829 6.63804 16.0868 6.59312 15.9629 6.59312C15.8646 6.59312 15.777 6.6254 15.7001 6.68997C15.6232 6.75173 15.5634 6.83875 15.5206 6.95104C15.4779 7.06333 15.4565 7.19246 15.4565 7.33844C15.4565 7.49283 15.4907 7.61495 15.5591 7.70478C15.6296 7.79461 15.7268 7.83952 15.8507 7.83952Z" fill="white"/>
<path d="M17.8422 6.35311C17.917 6.24643 18.0067 6.16923 18.1114 6.12151C18.2182 6.07379 18.3432 6.04993 18.4863 6.04993L18.3966 6.65628C18.3368 6.65067 18.2983 6.64786 18.2812 6.64786C18.1295 6.64786 18.0078 6.69699 17.9159 6.79524C17.8262 6.89349 17.7653 7.04649 17.7332 7.25422L17.5666 8.34903H17.0667L17.4096 6.08361H17.8838L17.8422 6.35311Z" fill="white"/>
<path d="M20.5818 5.22461L20.1075 8.34903H19.6332L19.6684 8.12165C19.5232 8.29569 19.3469 8.38272 19.1397 8.38272C19.0051 8.38272 18.8812 8.34201 18.7679 8.2606C18.6547 8.17919 18.5639 8.06269 18.4955 7.91111C18.4293 7.75671 18.3962 7.57564 18.3962 7.36791C18.3962 7.11807 18.4379 6.89349 18.5212 6.69418C18.6066 6.49206 18.722 6.33486 18.8673 6.22257C19.0126 6.10748 19.1728 6.04993 19.348 6.04993C19.474 6.04993 19.5841 6.078 19.6781 6.13414C19.7742 6.19029 19.85 6.2731 19.9056 6.38258L20.0819 5.22461H20.5818ZM19.2935 7.83952C19.3918 7.83952 19.4794 7.80864 19.5563 7.74688C19.6332 7.68232 19.693 7.59389 19.7357 7.4816C19.7785 7.36931 19.7998 7.24018 19.7998 7.09421C19.7998 6.93981 19.7646 6.8177 19.6941 6.72787C19.6257 6.63804 19.5296 6.59312 19.4057 6.59312C19.3074 6.59312 19.2198 6.6254 19.1429 6.68997C19.066 6.75173 19.0061 6.83875 18.9634 6.95104C18.9207 7.06333 18.8993 7.19246 18.8993 7.33844C18.8993 7.49283 18.9335 7.61495 19.0019 7.70478C19.0724 7.79461 19.1696 7.83952 19.2935 7.83952Z" fill="white"/>
</svg>
