<svg width="26" height="17" viewBox="0 0 26 17" fill="none" xmlns="http://www.w3.org/2000/svg">
<path d="M3.28571 1H16C16.5523 1 17 1.44772 17 2V2.42857M23.2857 7.28571H18C17.4477 7.28571 17 6.838 17 6.28571V2.42857M23.2857 7.28571L24.4825 8.72186C24.6323 8.90158 24.7143 9.12811 24.7143 9.36205V13.1429C24.7143 13.6951 24.2666 14.1429 23.7143 14.1429H22.1429M23.2857 7.28571L20.996 2.96068C20.8227 2.63332 20.4826 2.42857 20.1122 2.42857H17M16.7143 14.1429H11.8571M6.42857 14.1429H3.28571M7 10.4286H2.42857M9 7.28571H1M10.1429 4.14286H2.42857" stroke="#E93A53" stroke-width="2" stroke-linecap="round" stroke-linejoin="round"/>
<circle cx="8.99984" cy="14.1423" r="1.85714" stroke="#E93A53" stroke-width="2"/>
<circle cx="19.2856" cy="14.1423" r="1.85714" stroke="#E93A53" stroke-width="2"/>
</svg>
